<svg width="36" height="36" viewBox="0 0 36 36" fill="none" xmlns="http://www.w3.org/2000/svg">
<rect width="36" height="36" rx="18" fill="#22293A"/>
<path fill-rule="evenodd" clip-rule="evenodd" d="M27 18C27 13.0294 22.9706 9 18 9C13.0294 9 9 13.0294 9 18C9 22.4922 12.2912 26.2155 16.5937 26.8907V20.6016H14.3086V18H16.5937V16.0172C16.5937 13.7616 17.9374 12.5156 19.9932 12.5156C20.9779 12.5156 22.0078 12.6914 22.0078 12.6914V14.9063H20.8729C19.7549 14.9063 19.4063 15.6 19.4063 16.3118V18H21.9024L21.5033 20.6016H19.4063V26.8907C23.7088 26.2155 27 22.4922 27 18Z" fill="white"/>
<path fill-rule="evenodd" clip-rule="evenodd" d="M21.9062 18H19.4101V16.3117C19.4101 15.6 19.7588 14.9062 20.8768 14.9062H22.0117V12.6914C22.0117 12.6914 20.9818 12.5156 19.9971 12.5156C17.9413 12.5156 16.5976 13.7616 16.5976 16.0172V18H14.3125V20.6016H16.5976V26.8907C17.0559 26.9626 17.5255 27 18.0039 27C18.4823 27 18.9519 26.9626 19.4101 26.8907V20.6016H21.5072L21.9062 18Z" fill="#22293A"/>
</svg>
