<svg width="49" height="48" viewBox="0 0 49 48" fill="none" xmlns="http://www.w3.org/2000/svg">
<path d="M47.6304 32.1759C49.3329 24.4582 41.2396 6.88979 21.2897 0.61839C3.72119 -4.26257 -6.1899 40.5507 5.06925 45.9138C14.0323 50.1832 44.1047 48.1593 47.6304 32.1759Z" fill="url(#paint0_linear)"/>
<g opacity="0.15">
<path d="M6.38096 9.67446C5.73462 10.8146 5.13355 12.0242 4.58074 13.2834L46.4478 35.4635C46.9718 34.44 47.3722 33.3446 47.6303 32.1745C47.6724 31.9838 47.7085 31.7871 47.7385 31.5847L6.38096 9.67446Z" fill="url(#paint1_linear)"/>
<path d="M45.0681 19.9786C41.2682 12.5253 33.4995 4.45528 21.2896 0.616974C17.9646 -0.306788 14.9139 0.549432 12.229 2.58133L45.0681 19.9786Z" fill="url(#paint2_linear)"/>
<path d="M1.70151 21.9494L39.9322 42.203C38.7371 42.953 37.4471 43.6208 36.0897 44.2107L0.959397 25.5995C1.16291 24.3867 1.41097 23.1654 1.70151 21.9494Z" fill="url(#paint3_linear)"/>
<path d="M0.353516 35.4698C0.679436 40.5481 2.17479 44.5337 5.06912 45.9124C8.68145 47.633 15.7226 48.3315 23.0728 47.5059L0.353516 35.4698Z" fill="url(#paint4_linear)"/>
</g>
<path d="M22.8046 13.3322C16.7909 13.2546 11.8355 18.0985 11.7581 24.1301C11.6807 30.1617 16.5102 35.132 22.5239 35.2096C28.5375 35.2872 33.493 30.4433 33.5704 24.4117C33.6478 18.3801 28.8183 13.4098 22.8046 13.3322Z" fill="#C38F26"/>
<path d="M23.7949 13.3322C17.7812 13.2546 12.8257 18.0985 12.7483 24.1301C12.6709 30.1617 17.5004 35.132 23.5141 35.2096C29.5278 35.2872 34.4833 30.4433 34.5607 24.4117C34.6381 18.3801 29.8085 13.4098 23.7949 13.3322ZM29.1076 24.3413C29.0998 24.9454 28.6052 25.4289 28.0029 25.4211L24.7311 25.3789L24.689 28.6605C24.6812 29.2646 24.1866 29.748 23.5843 29.7403C22.982 29.7325 22.5 29.2364 22.5077 28.6323L22.5498 25.3507L19.278 25.3085C18.6756 25.3007 18.1936 24.8046 18.2014 24.2005C18.2091 23.5964 18.7037 23.1129 19.306 23.1207L22.5779 23.163L22.62 19.8813C22.6278 19.2772 23.1223 18.7938 23.7247 18.8015C24.327 18.8093 24.809 19.3054 24.8012 19.9095L24.7591 23.1911L28.031 23.2333C28.6333 23.2411 29.1153 23.7372 29.1076 24.3413Z" fill="white"/>
<defs>
<linearGradient id="paint0_linear" x1="5.5" y1="33" x2="42.5016" y2="16.0035" gradientUnits="userSpaceOnUse">
<stop stop-color="#D89A1E"/>
<stop offset="0.521936" stop-color="#FFBD39"/>
<stop offset="1" stop-color="#FFD15B"/>
</linearGradient>
<linearGradient id="paint1_linear" x1="7" y1="8.99902" x2="44.5" y2="31.999" gradientUnits="userSpaceOnUse">
<stop stop-color="white" stop-opacity="0.49"/>
<stop offset="1" stop-color="white"/>
</linearGradient>
<linearGradient id="paint2_linear" x1="7" y1="8.99902" x2="44.5" y2="31.999" gradientUnits="userSpaceOnUse">
<stop stop-color="white" stop-opacity="0.49"/>
<stop offset="1" stop-color="white"/>
</linearGradient>
<linearGradient id="paint3_linear" x1="7" y1="8.99902" x2="44.5" y2="31.999" gradientUnits="userSpaceOnUse">
<stop stop-color="white" stop-opacity="0.49"/>
<stop offset="1" stop-color="white"/>
</linearGradient>
<linearGradient id="paint4_linear" x1="7" y1="8.99902" x2="44.5" y2="31.999" gradientUnits="userSpaceOnUse">
<stop stop-color="white" stop-opacity="0.49"/>
<stop offset="1" stop-color="white"/>
</linearGradient>
</defs>
</svg>
